# File created by Blade
# Date/Time:  Thu Jan 22 19:29:39 2015
# Frame Rate: 120.000 fps
#------------------------------------------------------
:FULLY-SPECIFIED
:DEGREES
1568
root 2.362601 33.694674 1.211694 88.496296 -17.899631 -26.314074
RightUpLeg -6.720140 14.445346 -28.418887
RightLeg 151.492457 -0.000000 -0.000000
RightFoot 35.493715 4.783547 5.582827
RightToeBase -19.302846 -0.000000 0.000000
LeftUpLeg -91.584339 15.648334 3.855289
LeftLeg 33.482195 -0.000000 -0.000000
LeftFoot -27.583404 6.361453 -13.913703
LeftToeBase 11.004719 -0.000000 -0.000000
Spine -15.964836 -7.079637 -2.505651
RightShoulder -21.603754 -31.636923 -10.526875
RightArm 8.602733 -63.586300 61.586310
RightForeArm 35.712403 -0.000000 39.600932
RightHand -10.274970 -0.000000 13.486521
RightHandThumb1 -24.326973 -0.000000 -32.862282
LeftShoulder -36.000075 2.876012 36.570433
LeftArm 149.787295 -43.367761 -116.088560
LeftForeArm -11.195008 -0.000000 58.171188
LeftHand -14.513060 0.000000 12.096096
LeftHandThumb1 -26.253704 0.000000 33.147579
Head -41.582268 26.427957 -12.097770
1569
root 2.349951 33.691480 1.210920 88.432846 -17.817612 -26.272059
RightUpLeg -6.696258 14.317482 -28.370440
RightLeg 151.469081 -0.000000 -0.000000
RightFoot 35.488018 4.744028 5.645777
RightToeBase -19.307814 -0.000000 0.000000
LeftUpLeg -91.591205 15.649188 3.837182
LeftLeg 33.522681 -0.000000 -0.000000
LeftFoot -27.575995 6.315622 -13.889778
LeftToeBase 10.833259 -0.000000 -0.000000
Spine -15.990830 -7.146691 -2.446195
RightShoulder -21.608967 -31.673868 -10.524108
RightArm 8.615131 -63.549152 61.602438
RightForeArm 35.692695 0.000000 39.557889
RightHand -10.266700 -0.000000 13.524795
RightHandThumb1 -24.326973 -0.000000 -32.862282
LeftShoulder -35.964421 2.874163 36.574308
LeftArm 149.713007 -43.284299 -115.994199
LeftForeArm -11.090185 -0.000000 58.210000
LeftHand -14.528468 -0.000000 12.020243
LeftHandThumb1 -26.253704 0.000000 33.147579
Head -41.595152 26.436626 -12.074967
1570
root 2.338706 33.688200 1.210361 88.381567 -17.757113 -26.234414
RightUpLeg -6.702277 14.209095 -28.366283
RightLeg 151.458349 -0.000000 -0.000000
RightFoot 35.471402 4.725897 5.669134
RightToeBase -19.215964 -0.000000 0.000000
LeftUpLeg -91.586301 15.640490 3.839399
LeftLeg 33.548594 -0.000000 -0.000000
LeftFoot -27.580852 6.282111 -13.906165
LeftToeBase 10.763505 -0.000000 -0.000000
Spine -16.022088 -7.200388 -2.414889
RightShoulder -21.645800 -31.676122 -10.522787
RightArm 8.624318 -63.560853 61.610147
RightForeArm 35.729683 -0.000000 39.520532
RightHand -10.209456 -0.000000 13.457841
RightHandThumb1 -24.326973 -0.000000 -32.862282
LeftShoulder -35.915382 2.838272 36.598477
LeftArm 149.604190 -43.284105 -115.865559
LeftForeArm -11.083503 0.000000 58.289781
LeftHand -14.528859 -0.000000 12.000118
LeftHandThumb1 -26.253704 0.000000 33.147579
Head -41.617147 26.426764 -12.039361
1571
root 2.327920 33.687812 1.210495 88.347447 -17.690987 -26.207039
RightUpLeg -6.744555 14.124023 -28.372113
RightLeg 151.449982 -0.000000 -0.000000
RightFoot 35.472990 4.702165 5.693919
RightToeBase -19.231061 -0.000000 0.000000
LeftUpLeg -91.580563 15.634515 3.887811
LeftLeg 33.564490 -0.000000 -0.000000
LeftFoot -27.556963 6.301268 -13.857260
LeftToeBase 10.599562 -0.000000 -0.000000
Spine -16.060505 -7.243912 -2.374912
RightShoulder -21.656802 -31.674689 -10.526686
RightArm 8.602925 -63.517946 61.651808
RightForeArm 35.695372 -0.000000 39.479335
RightHand -10.201284 -0.000000 13.491319
RightHandThumb1 -24.326973 -0.000000 -32.862282
LeftShoulder -35.884884 2.829396 36.581976
LeftArm 149.540719 -43.258228 -115.753414
LeftForeArm -11.108834 -0.000000 58.412632
LeftHand -14.551107 0.000000 11.950072
LeftHandThumb1 -26.253704 0.000000 33.147579
Head -41.658113 26.405719 -12.021407
1572
root 2.316646 33.686636 1.210181 88.309322 -17.647686 -26.198787
RightUpLeg -6.787450 14.081333 -28.401842
RightLeg 151.454929 -0.000000 -0.000000
RightFoot 35.448108 4.703477 5.657850
RightToeBase -19.095601 -0.000000 0.000000
LeftUpLeg -91.547750 15.640188 3.923091
LeftLeg 33.567348 -0.000000 -0.000000
LeftFoot -27.565408 6.344050 -13.836443
LeftToeBase 10.492688 -0.000000 -0.000000
Spine -16.098838 -7.293040 -2.377271
RightShoulder -21.607237 -31.662148 -10.537947
RightArm 8.521751 -63.459466 61.737291
RightForeArm 35.627986 -0.000000 39.460867
RightHand -10.218836 -0.000000 13.543343
RightHandThumb1 -24.326973 -0.000000 -32.862282
LeftShoulder -35.883014 2.873139 36.565285
LeftArm 149.500865 -43.204099 -115.645604
LeftForeArm -11.157481 -0.000000 58.545240
LeftHand -14.536807 -0.000000 11.837518
LeftHandThumb1 -26.253704 0.000000 33.147579
Head -41.672455 26.451615 -11.960104
1573
root 2.307517 33.686095 1.210087 88.282444 -17.603121 -26.175929
RightUpLeg -6.857884 14.049788 -28.448156
RightLeg 151.464500 -0.000000 -0.000000
RightFoot 35.408027 4.714670 5.613249
RightToeBase -19.091405 -0.000000 0.000000
LeftUpLeg -91.524551 15.624588 3.994131
LeftLeg 33.568222 -0.000000 -0.000000
LeftFoot -27.540162 6.409350 -13.769398
LeftToeBase 10.336372 -0.000000 -0.000000
Spine -16.147740 -7.336627 -2.374920
RightShoulder -21.580234 -31.642615 -10.552576
RightArm 8.484195 -63.423560 61.772341
RightForeArm 35.562026 -0.000000 39.449841
RightHand -10.237714 -0.000000 13.626408
RightHandThumb1 -24.326973 -0.000000 -32.862282
LeftShoulder -35.871127 2.886576 36.562348
LeftArm 149.416077 -43.216859 -115.502169
LeftForeArm -11.273643 -0.000000 58.707456
LeftHand -14.547802 -0.000000 11.837070
LeftHandThumb1 -26.253704 0.000000 33.147579
Head -41.709012 26.487455 -11.937522
1574
root 2.298621 33.685127 1.209915 88.250889 -17.548029 -26.149620
RightUpLeg -6.932857 14.052494 -28.508172
RightLeg 151.466194 -0.000000 -0.000000
RightFoot 35.441761 4.710942 5.648911
RightToeBase -19.114430 -0.000000 0.000000
LeftUpLeg -91.493774 15.597267 4.085379
LeftLeg 33.563774 -0.000000 -0.000000
LeftFoot -27.541695 6.493620 -13.763056
LeftToeBase 10.024625 -0.000000 -0.000000
Spine -16.168692 -7.300924 -2.355614
RightShoulder -21.678926 -31.596813 -10.558234
RightArm 8.465908 -63.415201 61.799714
RightForeArm 35.421134 -0.000000 39.433907
RightHand -10.403195 -0.000000 13.939561
RightHandThumb1 -24.326973 -0.000000 -32.862282
LeftShoulder -35.794169 2.752628 36.572970
LeftArm 149.246744 -43.339053 -115.294231
LeftForeArm -11.415708 -0.000000 58.860988
LeftHand -14.558894 -0.000000 11.911415
LeftHandThumb1 -26.253704 0.000000 33.147579
Head -41.767929 26.373600 -11.992005
1575
root 2.290482 33.683260 1.209501 88.227126 -17.484877 -26.099122
RightUpLeg -6.993082 14.066191 -28.528453
RightLeg 151.462993 -0.000000 -0.000000
RightFoot 35.449185 4.755176 5.729003
RightToeBase -19.174403 -0.000000 0.000000
LeftUpLeg -91.492310 15.546530 4.161131
LeftLeg 33.560737 -0.000000 -0.000000
LeftFoot -27.489583 6.614335 -13.646259
LeftToeBase 9.809579 -0.000000 -0.000000
Spine -16.240715 -7.405607 -2.327356
RightShoulder -21.577976 -31.603277 -10.606202
RightArm 8.517248 -63.426620 61.733093
RightForeArm 35.497854 -0.000000 39.444514
RightHand -10.235311 -0.000000 13.551220
RightHandThumb1 -24.326973 -0.000000 -32.862282
LeftShoulder -35.836145 2.853670 36.563310
LeftArm 149.179381 -43.302730 -115.184440
LeftForeArm -11.476744 0.000000 59.056876
LeftHand -14.602928 -0.000000 11.970500
LeftHandThumb1 -26.253704 0.000000 33.147579
Head -41.765427 26.457650 -11.922551
